<?xml version="1.0" encoding="UTF-8" standalone="no"?>
<svg width="11px" height="20px" viewBox="0 0 11 20" version="1.1" xmlns="http://www.w3.org/2000/svg" xmlns:xlink="http://www.w3.org/1999/xlink">
    <!-- Generator: Sketch 42 (36781) - http://www.bohemiancoding.com/sketch -->
    <title>Shape</title>
    <desc>Created with Sketch.</desc>
    <defs></defs>
    <g id="Page-1" stroke="none" stroke-width="1" fill="none" fill-rule="evenodd">
        <path d="M10.350098,0.138546897 L10.350098,3.18657655 L8.54310806,3.18657655 C7.88323112,3.18657655 7.43819725,3.32512345 7.20800781,3.60221724 C6.97781837,3.87931034 6.86272331,4.29495103 6.86272331,4.84913793 L6.86272331,7.03125034 L10.2350029,7.03125034 L9.78613281,10.4487379 L6.86272331,10.4487379 L6.86272331,19.2118228 L3.34082031,19.2118228 L3.34082031,10.4487379 L0.405901375,10.4487379 L0.405901375,7.03125034 L3.34082031,7.03125034 L3.34082031,4.51431655 C3.34082031,3.0826669 3.73981575,1.97236759 4.53780662,1.18342069 C5.33579819,0.394473793 6.3985075,0 7.72593456,0 C8.85386425,0 9.72858562,0.0461827586 10.350098,0.138546897 Z" id="facebook-logo" fill="#FFFFFF" fill-rule="nonzero"></path>
    </g>
</svg>