<?xml version="1.0" encoding="UTF-8" standalone="no"?>
<svg width="30px" height="19px" viewBox="0 0 30 19" version="1.1" xmlns="http://www.w3.org/2000/svg" xmlns:xlink="http://www.w3.org/1999/xlink">
    <!-- Generator: Sketch 42 (36781) - http://www.bohemiancoding.com/sketch -->
    <title>Shape</title>
    <desc>Created with Sketch.</desc>
    <defs></defs>
    <g id="Page-1" stroke="none" stroke-width="1" fill="none" fill-rule="evenodd">
        <path d="M18.5053231,9.72589687 C18.5053231,11.5116107 18.1318685,13.102013 17.3849585,14.4971023 C16.6380492,15.8921915 15.5734892,16.9825076 14.1912777,17.7680499 C12.8090662,18.5535923 11.2251031,18.9463638 9.43938846,18.9463638 C8.16019923,18.9463638 6.93681308,18.6973938 5.76923077,18.1994546 C4.60164846,17.7015146 3.59718385,17.0318723 2.75583769,16.1905261 C1.91449154,15.3491799 1.24484923,14.3447153 0.746909231,13.177133 C0.24897,12.0095507 0,10.7861646 0,9.50697533 C0,8.22778533 0.24897,7.00439918 0.746909231,5.83681687 C1.24484923,4.66923456 1.91449154,3.66477072 2.75583769,2.82342456 C3.59718385,1.98207841 4.60164846,1.31243533 5.76923077,0.814495332 C6.93681308,0.316556101 8.16019923,0.0675861008 9.43938846,0.0675861008 C11.8947462,0.0675861008 14.0024038,0.891762255 15.7623623,2.54011379 L13.1996908,4.99976379 C12.1952269,4.02963995 10.9417923,3.54457841 9.43938846,3.54457841 C8.38341385,3.54457841 7.40685077,3.81071841 6.50970154,4.34299841 C5.61255154,4.87527841 4.90212923,5.59857841 4.37843385,6.51289841 C3.85473923,7.42721918 3.59289154,8.42524456 3.59289154,9.50697533 C3.59289154,10.5887061 3.85473923,11.5867315 4.37843385,12.5010515 C4.90212923,13.4153715 5.61255154,14.1386715 6.50970154,14.6709515 C7.40685077,15.2032323 8.38341385,15.4693723 9.43938846,15.4693723 C10.1519577,15.4693723 10.8065762,15.3706423 11.4032454,15.1731838 C11.9999138,14.9757253 12.4914146,14.7289015 12.8777469,14.432713 C13.26408,14.1365253 13.6010477,13.7995576 13.8886508,13.4218099 C14.1762531,13.044063 14.38659,12.6877784 14.51966,12.3529569 C14.65273,12.0181361 14.7450208,11.7004846 14.7965315,11.4000038 L9.43938846,11.4000038 L9.43938846,8.15481149 L18.35079,8.15481149 C18.4538115,8.69567687 18.5053231,9.21937225 18.5053231,9.72589687 Z M29.67033,8.15481149 L29.67033,10.8591384 L26.9788808,10.8591384 L26.9788808,13.5505876 L24.2745538,13.5505876 L24.2745538,10.8591384 L21.5831046,10.8591384 L21.5831046,8.15481149 L24.2745538,8.15481149 L24.2745538,5.46336225 L26.9788808,5.46336225 L26.9788808,8.15481149 L29.67033,8.15481149 Z" id="google-plus-logo" fill="#FFFFFF" fill-rule="nonzero"></path>
    </g>
</svg>