<?xml version="1.0" encoding="UTF-8" standalone="no"?>
<svg width="60px" height="32px" viewBox="0 0 60 32" version="1.1" xmlns="http://www.w3.org/2000/svg" xmlns:xlink="http://www.w3.org/1999/xlink">
    <!-- Generator: Sketch 42 (36781) - http://www.bohemiancoding.com/sketch -->
    <title>ria-logo</title>
    <desc>Created with Sketch.</desc>
    <defs>
        <polyline id="path-1" points="0 0.104597015 59.3943053 0.104597015 59.3943053 32 0 32"></polyline>
        <polygon id="path-3" points="0 0.104597015 59.3943053 0.104597015 59.3943053 32 0 32"></polygon>
        <polyline id="path-5" points="0 0.104597015 59.3943053 0.104597015 59.3943053 32 0 32"></polyline>
        <polyline id="path-7" points="0 0.104597015 59.3943053 0.104597015 59.3943053 32 0 32"></polyline>
    </defs>
    <g id="Page-1" stroke="none" stroke-width="1" fill="none" fill-rule="evenodd">
        <path d="M32.4097747,4.90669851 C35.0440584,2.21153433 39.0484345,1.88723582 41.3555602,4.17642985 C41.5593248,4.37941493 41.749379,4.61105672 41.9134308,4.8384 C41.726686,4.10144478 41.2477683,3.19684776 40.7253556,2.60174328 C38.3733165,0.796847761 34.7183187,1.24437015 32.2636882,3.75565373 C30.4572276,5.60353433 29.766981,8.08090746 30.2525175,10.1967284 C30.1938938,8.37416119 30.9247988,6.4264597 32.4097747,4.90669851 M42.1559627,5.99087761 C41.9829283,5.67278806 41.7649805,5.37953433 41.5021195,5.11923582 C39.6063051,3.23983284 36.076119,3.75374328 33.6167607,6.26693731 C31.9318025,7.98681791 31.1881326,10.199594 31.4963798,12.0269373 C31.5469663,10.4345791 32.2967822,8.68365373 33.6810577,7.26562388 C36.142307,4.75386269 39.6720203,4.24042985 41.5668892,6.11935522 C41.8254953,6.37487761 42.0410792,6.6743403 42.2131681,6.9862209 C42.2136408,6.94514627 42.2178958,6.83672836 42.2178958,6.79565373 C42.2273512,6.44508657 42.1762919,6.04007164 42.1559627,5.99087761" id="Fill-1" fill="#FFFFFF"></path>
        <mask id="mask-2" fill="white">
            <use xlink:href="#path-1"></use>
        </mask>
        <g id="Clip-4"></g>
        <path d="M17.6569346,16.4738388 C17.5094298,17.0522269 17.2947915,17.5026149 17.0134924,17.8245254 C16.7298294,18.1454806 16.4073991,18.3938388 16.0462015,18.563391 C15.6854767,18.735809 15.2921307,18.8432716 14.8675817,18.8853015 C14.4430328,18.9292418 14.0085556,18.9488239 13.5617864,18.9488239 L11.7123036,18.9488239 L12.9225991,14.1602866 L14.8997302,14.1602866 C15.3228609,14.1602866 15.73039,14.1856 16.1204267,14.2386149 C16.5085722,14.2940179 16.8371485,14.401003 17.1047373,14.5605254 C17.3699622,14.721003 17.562853,14.9521672 17.6777366,15.2516299 C17.7935656,15.553003 17.7860013,15.9589731 17.6569346,16.4738388 M26.630141,12.3749731 C26.429213,11.6146149 26.0188472,10.9922866 25.3976252,10.5113313 C24.7773488,10.0289433 23.9637087,9.67980896 22.9567051,9.46631642 C21.9506469,9.25186866 20.7781732,9.14918209 19.4421204,9.14918209 L4.22549138,9.14918209 L3.97397685,10.1397493 C3.97397685,10.1397493 5.28071775,10.5132418 4.88737172,12.2230925 L-0.000141831502,31.5821373 L8.52865915,31.5821373 L10.4509488,23.9647045 L12.3614191,23.9647045 C12.8913961,23.9647045 13.3466753,24.0277493 13.7267837,24.1576597 C14.109256,24.2851821 14.3621888,24.6070925 14.4865278,25.1219582 C14.5702084,25.4653612 14.5995202,25.9152716 14.5763544,26.4721672 C14.5517703,27.0300179 14.4969287,27.6241672 14.4123026,28.2565254 C14.3262582,28.8879284 14.245887,29.498794 14.1726074,30.0876896 C14.0964911,30.6780179 14.0511051,31.1771224 14.032667,31.5821373 L23.6332413,31.5821373 L23.878137,30.5939582 C23.878137,30.5939582 22.911319,30.3943164 22.8971358,29.2609433 C22.934012,28.690197 22.9689971,28.2460179 23.0143832,27.6456597 C23.0678064,26.9273313 23.0947544,26.2147343 23.0933361,25.507391 C23.0895539,24.7995701 23.0063461,24.1471522 22.8399305,23.546794 C22.5874704,22.9469134 22.2234362,22.4373015 21.745464,22.0184358 C21.2665463,21.6014806 20.5829185,21.306794 19.6941077,21.1362866 L19.7097092,21.0698985 C21.3984496,20.6854209 22.8479676,20.026794 24.0596814,19.0949731 C25.2704496,18.1631522 26.0911812,16.8387343 26.5251856,15.1231522 C26.7941927,14.0523463 26.8296506,13.1362866 26.630141,12.3749731" id="Fill-3" fill="#0039A6" mask="url(#mask-2)"></path>
        <path d="M49.2772278,24.6361791 C48.9287951,26.1100896 47.7298462,27.6809552 46.0458335,27.6809552 C44.7821148,27.6809552 44.2422095,27.2219701 44.5211448,26.0437015 C44.939075,24.2760597 46.9209338,24.1127164 48.6058921,24.1127164 L49.4020396,24.1127164 L49.2772278,24.6361791 Z M57.5460044,21.233194 C59.0182154,15.0156418 53.550611,14.1650149 48.8857729,14.1650149 C45.7101656,14.1650149 44.2686847,14.4429851 41.6760049,15.129791 L40.4624,19.9245373 C42.2750066,19.1073433 44.4951424,18.4850149 46.4396523,18.4850149 C48.4791893,18.4850149 50.6525206,18.7472239 50.1665114,20.9394627 C49.4370247,20.8730746 48.1808703,20.7097313 47.0466911,20.7097313 C42.9974017,20.7097313 38.0843585,21.7576119 36.8475878,26.9927164 C36.0017993,30.5604776 38.7074716,32 41.8485665,32 C44.1495463,32 46.4807834,31.0829851 48.0711873,29.1529552 L48.1354842,29.1529552 L47.5199355,31.5820896 L56.4761221,31.5820896 L56.7191267,30.624 C56.7191267,30.624 55.5121407,30.1903284 55.759873,28.7966567 L57.5460044,21.233194 Z" id="Fill-6" fill="#0039A6" mask="url(#mask-2)"></path>
        <path d="M34.4984799,28.4841075 C34.5069898,28.4363463 34.5240096,28.3919284 34.5325195,28.3508537 L37.8031539,15.4066149 C36.81317,16.2171224 35.558434,16.7100179 34.1864506,16.721003 C32.5052745,16.7324657 30.9905141,16.019391 29.9182679,14.8769433 L25.7006718,31.5818985 L35.1584692,31.5818985 L35.4142386,30.5746149 C35.4142386,30.5746149 34.195906,30.3835701 34.4984799,28.4841075" id="Fill-8" fill="#0039A6" mask="url(#mask-2)"></path>
        <mask id="mask-4" fill="white">
            <use xlink:href="#path-3"></use>
        </mask>
        <g id="Clip-11"></g>
        <path d="M34.4984799,28.4841075 C34.5069898,28.4363463 34.5240096,28.3919284 34.5325195,28.3508537 L37.8031539,15.4066149 C36.81317,16.2171224 35.558434,16.7100179 34.1864506,16.721003 C32.5052745,16.7324657 30.9905141,16.019391 29.9182679,14.8769433 L25.7006718,31.5818985 L35.1584692,31.5818985 L35.4142386,30.5746149 C35.4142386,30.5746149 34.195906,30.3835701 34.4984799,28.4841075 L34.4984799,28.4841075 Z M49.2773224,24.6359881 C48.9288897,26.1098985 47.7294679,27.6807642 46.045928,27.6807642 C44.7822093,27.6807642 44.2418313,27.2217791 44.5212394,26.0439881 C44.9391695,24.2758687 46.9205556,24.113003 48.6059866,24.113003 L49.4016613,24.113003 L49.2773224,24.6359881 Z M57.5460989,21.233003 C59.0178372,15.0159284 53.5507055,14.1653015 48.8858674,14.1653015 C45.7102601,14.1653015 44.2687793,14.4432716 41.6760994,15.1296 L40.4624946,19.9243463 C42.2751011,19.1071522 44.4952369,18.4848239 46.4397468,18.4848239 C48.478811,18.4848239 50.6526152,18.7470328 50.1666059,20.9392716 C49.4371192,20.8728836 48.1804921,20.7100179 47.0467856,20.7100179 C42.9974963,20.7100179 38.084453,21.7574209 36.8476823,26.9925254 C36.0018938,30.5607642 38.7070933,31.999809 41.8486611,31.999809 C44.1496408,31.999809 46.4808779,31.082794 48.0712819,29.1527642 L48.1355788,29.1527642 L47.5200301,31.5818985 L56.4757439,31.5818985 L56.7192213,30.623809 C56.7192213,30.623809 55.5117624,30.1901373 55.7599676,28.7964657 L57.5460989,21.233003 Z M17.6569346,16.4740776 C17.5089571,17.0519881 17.2947915,17.5028537 17.0134924,17.8247642 C16.7298294,18.1457194 16.4073991,18.3936 16.0462015,18.5636299 C15.6854767,18.7360478 15.2921307,18.8430328 14.8675817,18.8850627 C14.4430328,18.929003 14.0085556,18.9485851 13.5617864,18.9485851 L11.7123036,18.9485851 L12.9225991,14.1605254 L14.8997302,14.1605254 C15.3223881,14.1605254 15.73039,14.1858388 16.1204267,14.2388537 C16.5085722,14.2937791 16.8371485,14.4012418 17.1047373,14.5607642 C17.3699622,14.7212418 17.562853,14.952406 17.6777366,15.2518687 C17.7935656,15.5532418 17.7860013,15.9587343 17.6569346,16.4740776 L17.6569346,16.4740776 Z M26.630141,12.3747343 C26.429213,11.6148537 26.0188472,10.9925254 25.3976252,10.5110925 C24.7773488,10.0287045 23.9637087,9.68004776 22.9567051,9.46655522 C21.9506469,9.25162985 20.7781732,9.1494209 19.4421204,9.1494209 L4.22549138,9.1494209 L3.97397685,10.1399881 C3.97397685,10.1399881 5.28071775,10.513003 4.88737172,12.2228537 L-0.000141831502,31.5818985 L8.52865915,31.5818985 L10.4509488,23.9644657 L12.3614191,23.9644657 C12.8913961,23.9644657 13.3466753,24.0279881 13.7267837,24.1574209 C14.109256,24.2854209 14.3621888,24.6073313 14.4865278,25.122197 C14.5702084,25.4656 14.5995202,25.9150328 14.5763544,26.4719284 C14.5517703,27.0297791 14.4969287,27.6239284 14.4123026,28.2562866 C14.3262582,28.8881672 14.245887,29.4990328 14.1726074,30.0874507 C14.0964911,30.6782567 14.0511051,31.1773612 14.032667,31.5818985 L23.6332413,31.5818985 L23.878137,30.594197 C23.878137,30.594197 22.911319,30.3945552 22.8971358,29.2611821 C22.934012,28.6904358 22.9689971,28.2462567 23.0143832,27.6454209 C23.0678064,26.9270925 23.0947544,26.2144955 23.0933361,25.5076299 C23.0895539,24.7993313 23.0063461,24.147391 22.8399305,23.5465552 C22.5874704,22.9466746 22.2234362,22.4375403 21.745464,22.0186746 C21.2665463,21.6017194 20.5829185,21.3070328 19.6941077,21.1360478 L19.7097092,21.0701373 C21.3984496,20.6856597 22.8479676,20.0270328 24.0596814,19.0952119 C25.2699768,18.163391 26.0911812,16.8384955 26.5251856,15.1229134 C26.7941927,14.0521075 26.8296506,13.1360478 26.630141,12.3747343 L26.630141,12.3747343 Z" id="Fill-10" fill="#0039A6" mask="url(#mask-4)"></path>
        <mask id="mask-6" fill="white">
            <use xlink:href="#path-5"></use>
        </mask>
        <g id="Clip-14"></g>
        <path d="M59.2336102,28.3759284 C59.2336102,27.8768239 58.8222988,27.4823164 58.3410172,27.4823164 C57.8616268,27.4823164 57.4503154,27.8768239 57.4503154,28.3759284 C57.4503154,28.8750328 57.8616268,29.2704955 58.3410172,29.2704955 C58.8222988,29.2704955 59.2336102,28.8750328 59.2336102,28.3759284 M57.2905186,28.3759284 C57.2905186,27.7875104 57.7538348,27.3180179 58.3410172,27.3180179 C58.9300907,27.3180179 59.3943525,27.7875104 59.3943525,28.3759284 C59.3943525,28.963391 58.9300907,29.4328836 58.3410172,29.4328836 C57.7538348,29.4328836 57.2905186,28.963391 57.2905186,28.3759284" id="Fill-13" fill="#0039A6" mask="url(#mask-6)"></path>
        <path d="M58.1850971,28.2891463 L58.2602678,28.2891463 C58.3723147,28.2891463 58.5009086,28.2724299 58.5009086,28.1296239 C58.5009086,27.991594 58.373733,27.980609 58.2602678,27.980609 L58.1850971,27.980609 L58.1850971,28.2891463 Z M57.9572212,27.799594 L58.2035352,27.799594 C58.4470126,27.799594 58.7377672,27.790997 58.7377672,28.1100418 C58.7377672,28.2442507 58.6484134,28.3564896 58.5046908,28.3760716 L58.5046908,28.3798925 C58.5656783,28.384191 58.6020818,28.4467582 58.6238293,28.4973851 L58.8063191,28.9468179 L58.5533863,28.9468179 L58.4162825,28.5876537 C58.3831885,28.5026388 58.3548222,28.4701612 58.2583768,28.4701612 L58.1850971,28.4701612 L58.1850971,28.9468179 L57.9572212,28.9468179 L57.9572212,27.799594 Z" id="Fill-16" fill="#0039A6" mask="url(#mask-6)"></path>
        <mask id="mask-8" fill="white">
            <use xlink:href="#path-7"></use>
        </mask>
        <g id="Clip-19"></g>
        <path d="M35.5351736,13.6025791 C31.846609,13.6025791 28.8563282,10.581206 28.8563282,6.8544 C28.8563282,3.12663881 31.846609,0.104310448 35.5351736,0.104310448 C37.6248244,0.104310448 39.4884904,1.07481791 40.7134418,2.59266866 C38.3609299,0.800191045 34.7163331,1.24914627 32.2669031,3.75565373 C30.4604425,5.60353433 29.7701958,8.08138507 30.2557324,10.1967284 C30.1971087,8.37416119 30.9280137,6.4264597 32.4129895,4.90669851 C35.0472733,2.21153433 39.0511766,1.88723582 41.3583023,4.17642985 C41.5592303,4.37702687 41.7459751,4.60484776 41.9081358,4.82884776 C42.0239648,5.19995224 42.1029177,5.5863403 42.1535043,5.9822806 C41.9809426,5.66753433 41.7653587,5.37714627 41.5053343,5.11923582 C39.6090471,3.23983284 36.0793338,3.75374328 33.6199756,6.26693731 C31.9350173,7.98681791 31.1913475,10.199594 31.4995946,12.0269373 C31.5501812,10.4345791 32.2999971,8.68365373 33.6842725,7.26610149 C36.1450491,4.75386269 39.6747624,4.24042985 41.5696313,6.11935522 C41.8254007,6.37201194 42.038148,6.66765373 42.2092913,6.97571343 C42.1445216,10.6456836 39.1840254,13.6025791 35.5351736,13.6025791" id="Fill-18" fill="#FF6E00" mask="url(#mask-8)"></path>
    </g>
</svg>